<?xml version="1.0" encoding="utf-8"?>
<!-- Generator: Adobe Illustrator 19.0.0, SVG Export Plug-In . SVG Version: 6.00 Build 0)  -->
<svg version="1.1" id="Layer_1" xmlns="http://www.w3.org/2000/svg" xmlns:xlink="http://www.w3.org/1999/xlink" x="0px" y="0px"
	 viewBox="0 0 32 32" style="enable-background:new 0 0 32 32;" xml:space="preserve">
<style type="text/css">
	.st0{fill-rule:evenodd;clip-rule:evenodd;fill:#FFFFFF;}
</style>
<g id="XMLID_1199_">
	<g id="XMLID_25_">
		<path id="XMLID_27_" class="st0" d="M18.4,26.6c-0.8,0.2-1.5,0.3-2.4,0.3c-5.7,0-10.4-4.7-10.4-10.4c0-5.7,4.7-10.4,10.4-10.4
			c5.8,0,10.4,4.7,10.4,10.4c0,3.5-1.8,6.6-4.4,8.5l3.7,4.2c3.8-2.9,6.3-7.5,6.3-12.7c0-8.8-7.2-16-16-16c-8.8,0-16,7.2-16,16
			s7.2,16,16,16c2.3,0,4.5-0.5,6.4-1.4L18.4,26.6z"/>
		<path id="XMLID_26_" class="st0" d="M22.8,16.5c0-3.8-3-6.8-6.8-6.8c-3.7,0-6.8,3-6.8,6.8c0,3.7,3,6.8,6.8,6.8
			C19.8,23.3,22.8,20.3,22.8,16.5L22.8,16.5z"/>
	</g>
</g>
</svg>
