<?xml version="1.0" encoding="utf-8"?>
<!-- Generator: Adobe Illustrator 19.0.0, SVG Export Plug-In . SVG Version: 6.00 Build 0)  -->
<svg version="1.1" id="Layer_1" xmlns="http://www.w3.org/2000/svg" xmlns:xlink="http://www.w3.org/1999/xlink" x="0px" y="0px"
	 viewBox="0 0 28.1 28.1" style="enable-background:new 0 0 28.1 28.1;" xml:space="preserve">
<style type="text/css">
	.st0{fill-rule:evenodd;clip-rule:evenodd;fill:#221F20;}
	.st1{fill-rule:evenodd;clip-rule:evenodd;fill:#2964F4;}
</style>
<g id="XMLID_251_">
	<path id="XMLID_993_" class="st0" d="M16.2,22.9c-0.7,0.2-1.4,0.3-2.1,0.3c-5.1,0-9.1-4.1-9.1-9.2S9,4.9,14,4.9
		c5.1,0,9.2,4.1,9.2,9.2c0,3.1-1.5,5.8-3.9,7.5l3.2,3.7c3.4-2.6,5.6-6.6,5.6-11.2c0-7.8-6.3-14-14.1-14C6.3,0,0,6.3,0,14
		s6.3,14,14,14c2,0,3.9-0.4,5.7-1.2L16.2,22.9z"/>
	<path id="XMLID_992_" class="st1" d="M20,14c0-3.3-2.7-6-6-6c-3.3,0-6,2.7-6,6c0,3.3,2.7,6,6,6C17.4,20,20,17.4,20,14L20,14z"/>
</g>
</svg>
